<mxfile host="app.diagrams.net" modified="2024-06-10T06:56:32.406Z" agent="Mozilla/5.0 (Windows NT 10.0; Win64; x64) AppleWebKit/537.36 (KHTML, like Gecko) Chrome/125.0.0.0 Safari/537.36" etag="3qTFoj3iAP9GNOnaK7QY" version="24.5.2" type="onedrive">
  <diagram name="Halaman-1" id="v90Hx7Pv5BjZw_eXQTvs">
    <mxGraphModel grid="1" page="1" gridSize="10" guides="1" tooltips="1" connect="1" arrows="1" fold="1" pageScale="1" pageWidth="827" pageHeight="1169" math="0" shadow="0">
      <root>
        <mxCell id="0" />
        <mxCell id="1" parent="0" />
        <mxCell id="kWrAUFm43wOgcbVdMCFt-1" value="" style="edgeStyle=orthogonalEdgeStyle;rounded=0;orthogonalLoop=1;jettySize=auto;html=1;" edge="1" parent="1" source="kWrAUFm43wOgcbVdMCFt-2" target="kWrAUFm43wOgcbVdMCFt-4">
          <mxGeometry relative="1" as="geometry" />
        </mxCell>
        <mxCell id="kWrAUFm43wOgcbVdMCFt-2" value="tampilkanRiwayat&lt;div&gt;MedisPasien&lt;/div&gt;" style="ellipse;whiteSpace=wrap;html=1;" vertex="1" parent="1">
          <mxGeometry x="40" y="40" width="130" height="40" as="geometry" />
        </mxCell>
        <mxCell id="kWrAUFm43wOgcbVdMCFt-3" value="" style="edgeStyle=orthogonalEdgeStyle;rounded=0;orthogonalLoop=1;jettySize=auto;html=1;" edge="1" parent="1" source="kWrAUFm43wOgcbVdMCFt-4" target="kWrAUFm43wOgcbVdMCFt-7">
          <mxGeometry relative="1" as="geometry" />
        </mxCell>
        <mxCell id="kWrAUFm43wOgcbVdMCFt-4" value="mulai" style="ellipse;whiteSpace=wrap;html=1;" vertex="1" parent="1">
          <mxGeometry x="80" y="120" width="50" height="20" as="geometry" />
        </mxCell>
        <mxCell id="kWrAUFm43wOgcbVdMCFt-5" value="selesai" style="ellipse;whiteSpace=wrap;html=1;" vertex="1" parent="1">
          <mxGeometry x="80" y="380" width="50" height="20" as="geometry" />
        </mxCell>
        <mxCell id="kWrAUFm43wOgcbVdMCFt-6" value="" style="edgeStyle=orthogonalEdgeStyle;rounded=0;orthogonalLoop=1;jettySize=auto;html=1;" edge="1" parent="1" source="kWrAUFm43wOgcbVdMCFt-7" target="kWrAUFm43wOgcbVdMCFt-9">
          <mxGeometry relative="1" as="geometry" />
        </mxCell>
        <mxCell id="kWrAUFm43wOgcbVdMCFt-7" value="pengulangan sebanyak variabel &quot;sizeRiwayatMedisPasien&quot; (jumlah pasien)" style="rounded=1;whiteSpace=wrap;html=1;" vertex="1" parent="1">
          <mxGeometry x="45" y="180" width="120" height="60" as="geometry" />
        </mxCell>
        <mxCell id="kWrAUFm43wOgcbVdMCFt-8" value="" style="edgeStyle=orthogonalEdgeStyle;rounded=0;orthogonalLoop=1;jettySize=auto;html=1;" edge="1" parent="1" source="kWrAUFm43wOgcbVdMCFt-9" target="kWrAUFm43wOgcbVdMCFt-5">
          <mxGeometry relative="1" as="geometry" />
        </mxCell>
        <mxCell id="kWrAUFm43wOgcbVdMCFt-9" value="menampilkan rincian riwayat medis pasien (no., tanggal, id pasien, dll.)" style="shape=parallelogram;perimeter=parallelogramPerimeter;whiteSpace=wrap;html=1;fixedSize=1;" vertex="1" parent="1">
          <mxGeometry x="45" y="280" width="120" height="60" as="geometry" />
        </mxCell>
      </root>
    </mxGraphModel>
  </diagram>
</mxfile>
